<svg width="131" height="18" viewBox="0 0 131 18" fill="none" xmlns="http://www.w3.org/2000/svg">
<path d="M111.89 7.60871V17.8306H115.168V11.0249H127.098V17.8306H130.374V7.62643L111.89 7.60871ZM114.802 4.30216H127.407C129.158 3.95416 130.46 2.40912 130.827 0.914456H111.383C111.746 2.40958 113.068 3.95416 114.802 4.30216ZM101.962 17.8371C103.614 17.1365 104.504 15.9245 104.844 14.5064H90.1415L90.1508 0.922855L86.855 0.93218V17.8371H101.962ZM62.3461 4.25645H73.9871C75.7421 3.74657 77.2158 2.40959 77.575 0.927525H59.083V10.9176H74.2181V14.4233L62.3461 14.4326C60.4857 14.9514 58.908 16.2007 58.1211 17.8507L59.083 17.8329H77.47V7.59611H62.3461V4.25645ZM33.6084 4.28864H46.209C47.9621 3.93923 49.2651 2.3956 49.6303 0.899536H30.1871C30.5501 2.3956 31.8721 3.93923 33.6084 4.28864ZM33.6084 10.9698H46.209C47.9621 10.6241 49.2651 9.07911 49.6303 7.58212H30.1871C30.5501 9.07957 31.8721 10.6241 33.6084 10.9698ZM33.6084 17.8353H46.209C47.9621 17.4868 49.2651 15.9422 49.6303 14.4471H30.1871C30.5501 15.9427 31.8721 17.4868 33.6084 17.8353ZM0.827148 0.94058C1.20595 2.41798 2.48508 3.92803 4.24005 4.30636H9.54414L9.8147 4.41319V17.7975H13.1268V4.41319L13.4277 4.30636H18.7365C20.511 3.84919 21.7627 2.41798 22.1349 0.94058V0.907921H0.827148V0.94058Z" fill="#8E9996"/>
</svg>
